<?xml version="1.0" encoding="UTF-8" standalone="no"?>
<svg width="728px" height="80px" viewBox="0 0 728 80" version="1.1" xmlns="http://www.w3.org/2000/svg" xmlns:xlink="http://www.w3.org/1999/xlink" xmlns:sketch="http://www.bohemiancoding.com/sketch/ns">
    <g id="Page-1" stroke="none" stroke-width="1" fill="none" fill-rule="evenodd" sketch:type="MSPage">
        <g id="success" sketch:type="MSArtboardGroup">
            <rect id="Rectangle-1" stroke="#E8D7B1" stroke-width="2" fill="#FCF8E3" sketch:type="MSShapeGroup" x="0" y="0" width="728" height="80" rx="5"></rect>
            <path d="M66.5834054,52.5840087 L52.3326406,24.0824791 C51.7076071,22.7907431 50.4158711,21.999034 48.9991284,21.999034 C47.5823857,21.999034 46.2906497,22.7907431 45.6239473,24.0824791 L31.3731825,52.5840087 C30.8314868,53.7507379 30.8731557,55.1258117 31.5398581,56.2092032 C32.2482295,57.3342636 33.4566276,58.000966 34.7483636,58.000966 L63.2498932,58.000966 C64.5416292,58.000966 65.7500273,57.3342636 66.4583987,56.2092032 C67.1251011,55.1258117 67.16677,53.7507379 66.5834054,52.5840087 L66.5834054,52.5840087 Z M46.7490076,31.7495572 L51.2492491,31.7495572 L51.2492491,44.5002415 L46.7490076,44.5002415 L46.7490076,31.7495572 Z M48.9991284,54.2507648 C47.3323723,54.2507648 45.9989674,52.9173599 45.9989674,51.2506038 C45.9989674,49.5838477 47.3323723,48.2504428 48.9991284,48.2504428 C50.6658845,48.2504428 51.9992894,49.5838477 51.9992894,51.2506038 C51.9992894,52.9173599 50.6658845,54.2507648 48.9991284,54.2507648 L48.9991284,54.2507648 Z" id="warning" fill="#8D6A32" sketch:type="MSShapeGroup"></path>

            <text id="This-project-was-sup" sketch:type="MSTextLayer" font-family="Arial" font-size="15" font-weight="normal" fill="#8D6A32">
                <tspan x="87" y="48">The Parameter Sanitizer API has changed for Devise 4</tspan>
            </text>
        </g>
    </g>
</svg>
